<svg width="34" height="31" viewBox="0 0 34 31" fill="none" xmlns="http://www.w3.org/2000/svg">
<path d="M8.53091 17.9277C9.93212 18.3427 11.0036 19.1312 11.7455 20.2932C12.5697 21.3722 12.9818 22.7001 12.9818 24.2771C12.9818 26.2691 12.3636 27.8876 11.1273 29.1325C9.89091 30.3775 8.36606 31 6.55273 31C4.57455 31 2.96727 30.3775 1.73091 29.1325C0.57697 27.8046 0 26.1861 0 24.2771C0 23.2811 0.0824243 22.3266 0.247273 21.4137C0.494545 20.4177 0.947879 19.0067 1.60727 17.1807L6.8 0H12.7345L8.53091 17.9277ZM29.5491 17.9277C30.9503 18.3427 32.0218 19.1312 32.7636 20.2932C33.5879 21.3722 34 22.7001 34 24.2771C34 26.2691 33.3818 27.8876 32.1455 29.1325C30.9091 30.3775 29.3842 31 27.5709 31C25.5927 31 23.9855 30.3775 22.7491 29.1325C21.5952 27.8046 21.0182 26.1861 21.0182 24.2771C21.0182 23.2811 21.1006 22.3266 21.2655 21.4137C21.5127 20.4177 21.9661 19.0067 22.6255 17.1807L27.8182 0H33.7527L29.5491 17.9277Z" fill="white" fill-opacity="0.05"/>
</svg>
