<svg width="20" height="20" viewBox="0 0 20 20" fill="none" xmlns="http://www.w3.org/2000/svg" filter="drop-shadow(0px 1px 0 #D1ADAD)">
<path d="M1.91961 6.9867C2.1726 7.16523 2.93523 7.69546 4.20753 8.57712C5.47986 9.45878 6.45456 10.1376 7.13165 10.6137C7.20604 10.6659 7.36409 10.7793 7.60587 10.9542C7.84769 11.1292 8.04861 11.2706 8.2085 11.3784C8.36849 11.4862 8.56192 11.6072 8.78896 11.7411C9.01592 11.8748 9.22987 11.9755 9.43076 12.0421C9.63168 12.1092 9.81768 12.1425 9.98878 12.1425H10H10.0113C10.1824 12.1425 10.3684 12.1092 10.5694 12.0421C10.7702 11.9755 10.9843 11.8747 11.2111 11.7411C11.438 11.607 11.6314 11.4862 11.7914 11.3784C11.9514 11.2706 12.1522 11.1292 12.3941 10.9542C12.6358 10.7792 12.794 10.6659 12.8684 10.6137C13.5528 10.1376 15.2941 8.92851 18.0916 6.98646C18.6347 6.60716 19.0885 6.14949 19.453 5.61374C19.8178 5.07824 20 4.51646 20 3.92873C20 3.43759 19.8232 3.01716 19.4697 2.66749C19.1163 2.31775 18.6977 2.14297 18.2142 2.14297H1.78564C1.21276 2.14297 0.771892 2.33639 0.463112 2.72324C0.154371 3.11016 0 3.59379 0 4.1741C0 4.64284 0.204681 5.15079 0.613847 5.69763C1.02297 6.24452 1.45837 6.67424 1.91961 6.9867Z" fill="white"/>
<path d="M18.8838 8.18079C16.4435 9.83242 14.5906 11.116 13.3259 12.0313C12.9018 12.3437 12.5578 12.5875 12.2936 12.7622C12.0293 12.9371 11.678 13.1157 11.2389 13.2979C10.8 13.4804 10.3909 13.5713 10.0114 13.5713H10H9.9888C9.60934 13.5713 9.20006 13.4804 8.76115 13.2979C8.32224 13.1157 7.97061 12.9371 7.70647 12.7622C7.44241 12.5875 7.09826 12.3437 6.6742 12.0313C5.66968 11.2947 3.82075 10.0111 1.12734 8.18079C0.703129 7.89824 0.327387 7.57437 0 7.20984V16.0712C0 16.5626 0.174776 16.9827 0.524523 17.3325C0.874192 17.6823 1.29465 17.8571 1.78575 17.8571H18.2144C18.7053 17.8571 19.1258 17.6823 19.4755 17.3325C19.8253 16.9826 20 16.5626 20 16.0712V7.20984C19.68 7.56682 19.3081 7.89069 18.8838 8.18079Z" fill="white"/>
</svg>
