<svg width="145" height="42" viewBox="0 0 145 42" fill="none" xmlns="http://www.w3.org/2000/svg">
<g filter="url(#filter0_d)">
<path fill-rule="evenodd" clip-rule="evenodd" d="M0 0H145V40H0V0Z" fill="#ffa500"/>
</g>
<path d="M0 0H145V40H0V0Z" fill="url(#paint0_linear)"/>
<path opacity="0.988" fill-rule="evenodd" clip-rule="evenodd" d="M105.605 15.6097H97.6279L97.2041 18.2815H104.433L103.81 22.2516H96.581L96.1323 25.0981H104.234L103.611 29.0932H90.8973L93.6645 11.6146H106.228L105.605 15.6097ZM83.7667 29.0932L77.9583 19.1805C77.9583 20.0043 77.8336 20.9531 77.7091 21.7772L76.5125 29.0932H71.9007L74.6678 11.6146H78.5066L84.3399 21.5524C84.3649 20.7784 84.4896 19.6048 84.639 18.7309L85.7608 11.6146H90.3726L87.6055 29.0932H83.7667ZM63.9982 29.0932L66.7651 11.6146H71.3769L68.61 29.0932H63.9982ZM56.0945 29.0932L57.5653 19.8296L53.2775 25.198H50.1365L47.4941 19.7547L45.9734 29.0932H41.3619L44.1288 11.6146H48.3168L52.3054 19.8046L58.8118 11.6146H63.4732L60.7063 29.0932H56.0945ZM34.231 29.0932L28.4229 19.1805C28.4229 20.0043 28.2981 20.9531 28.1734 21.7772L26.9768 29.0932H22.3653L25.1321 11.6146H28.9711L34.8045 21.5524C34.8294 20.7784 34.9539 19.6048 35.1036 18.7309L36.2253 11.6146H40.8371L38.07 29.0932H34.231ZM14.4625 29.0932L17.2296 11.6146H21.8414L19.0743 29.0932H14.4625Z" fill="#D1ADAD"/>
<path opacity="0.988" fill-rule="evenodd" clip-rule="evenodd" d="M105.605 14.6097H97.6279L97.2041 17.2815H104.433L103.81 21.2516H96.581L96.1323 24.0981H104.234L103.611 28.0932H90.8973L93.6645 10.6146H106.228L105.605 14.6097ZM83.7667 28.0932L77.9583 18.1805C77.9583 19.0043 77.8336 19.9531 77.7091 20.7772L76.5125 28.0932H71.9007L74.6678 10.6146H78.5066L84.3399 20.5524C84.3649 19.7784 84.4896 18.6048 84.639 17.7309L85.7608 10.6146H90.3726L87.6055 28.0932H83.7667ZM63.9982 28.0932L66.7651 10.6146H71.3769L68.61 28.0932H63.9982ZM56.0945 28.0932L57.5653 18.8296L53.2775 24.198H50.1365L47.4941 18.7547L45.9734 28.0932H41.3619L44.1288 10.6146H48.3168L52.3054 18.8046L58.8118 10.6146H63.4732L60.7063 28.0932H56.0945ZM34.231 28.0932L28.4229 18.1805C28.4229 19.0043 28.2981 19.9531 28.1734 20.7772L26.9768 28.0932H22.3653L25.1321 10.6146H28.9711L34.8045 20.5524C34.8294 19.7784 34.9539 18.6048 35.1036 17.7309L36.2253 10.6146H40.8371L38.07 28.0932H34.231ZM14.4625 28.0932L17.2296 10.6146H21.8414L19.0743 28.0932H14.4625Z" fill="white"/>
<path fill-rule="evenodd" clip-rule="evenodd" d="M130.587 24.69C130.449 25.0215 130.083 25.1796 129.748 25.0423L127.045 23.9688C126.71 23.8317 126.55 23.4703 126.688 23.1389C126.683 23.0947 126.722 23.0448 126.761 22.9953C126.936 22.7712 127.218 22.6685 127.528 22.7866L130.231 23.8598C130.567 23.9971 130.726 24.3585 130.587 24.69ZM126.453 29.0406C126.204 29.1405 125.924 29.0238 125.823 28.7779L125.121 26.9859C125.102 26.9129 125.084 26.8402 125.09 26.7691C125.105 26.5798 125.213 26.4215 125.386 26.3634C125.635 26.2633 125.915 26.38 126.016 26.6259L126.719 28.4182C126.82 28.664 126.702 28.9405 126.453 29.0406ZM125.678 25.2315C125.615 25.4834 125.391 25.6406 125.137 25.6722C124.85 25.7038 124.628 25.5464 124.5 25.326C124.468 25.2947 123.131 22.7138 120.138 19.5038L110.65 28.8509C110.395 29.1026 110.013 29.1026 109.758 28.8509L108.453 27.5604C108.326 27.4346 108.262 27.2774 108.262 27.1199C108.262 26.9625 108.326 26.8051 108.453 26.6792L117.941 17.3323C114.916 14.6572 112.019 13.1153 111.987 13.0837C111.764 12.9578 111.637 12.7375 111.637 12.5171C111.637 12.4858 111.637 12.4858 111.637 12.4542C111.669 12.2025 111.828 12.0137 112.082 11.9192C114.503 11.1326 117.846 12.2025 120.743 14.5627L121.571 13.7445C121.825 13.4928 122.208 13.4928 122.462 13.7445L123.768 15.0664C123.895 15.1922 123.959 15.3496 123.959 15.5071C123.959 15.6643 123.895 15.8217 123.768 15.9475L122.94 16.7658C124.787 18.9688 125.901 21.4865 125.901 23.6579C125.901 24.2245 125.837 24.7595 125.678 25.2315ZM120.165 27.9967L122.409 25.5464C122.631 25.2717 123.046 25.2425 123.308 25.49C123.571 25.7377 123.573 26.1321 123.35 26.4067L121.093 28.8142C120.871 29.0891 120.457 29.1183 120.194 28.8706C119.972 28.6806 119.925 28.3693 120.061 28.1202C120.092 28.0647 120.135 28.0521 120.165 27.9967Z" fill="#D1ADAD"/>
<path fill-rule="evenodd" clip-rule="evenodd" d="M130.587 23.69C130.449 24.0215 130.083 24.1796 129.748 24.0423L127.045 22.9688C126.71 22.8317 126.55 22.4703 126.688 22.1389C126.683 22.0947 126.722 22.0448 126.761 21.9953C126.936 21.7712 127.218 21.6685 127.528 21.7866L130.231 22.8598C130.567 22.9971 130.726 23.3585 130.587 23.69ZM126.453 28.0406C126.204 28.1405 125.924 28.0238 125.823 27.7779L125.121 25.9859C125.102 25.9129 125.084 25.8402 125.09 25.7691C125.105 25.5798 125.213 25.4215 125.386 25.3634C125.635 25.2633 125.915 25.38 126.016 25.6259L126.719 27.4182C126.82 27.664 126.702 27.9405 126.453 28.0406ZM125.678 24.2315C125.615 24.4834 125.391 24.6406 125.137 24.6722C124.85 24.7038 124.628 24.5464 124.5 24.326C124.468 24.2947 123.131 21.7138 120.138 18.5038L110.65 27.8509C110.395 28.1026 110.013 28.1026 109.758 27.8509L108.453 26.5604C108.326 26.4346 108.262 26.2774 108.262 26.1199C108.262 25.9625 108.326 25.8051 108.453 25.6792L117.941 16.3323C114.916 13.6572 112.019 12.1153 111.987 12.0837C111.764 11.9578 111.637 11.7375 111.637 11.5171C111.637 11.4858 111.637 11.4858 111.637 11.4542C111.669 11.2025 111.828 11.0137 112.082 10.9192C114.503 10.1326 117.846 11.2025 120.743 13.5627L121.571 12.7445C121.825 12.4928 122.208 12.4928 122.462 12.7445L123.768 14.0664C123.895 14.1922 123.959 14.3496 123.959 14.5071C123.959 14.6643 123.895 14.8217 123.768 14.9475L122.94 15.7658C124.787 17.9688 125.901 20.4865 125.901 22.6579C125.901 23.2245 125.837 23.7595 125.678 24.2315ZM120.165 26.9967L122.409 24.5464C122.631 24.2717 123.046 24.2425 123.308 24.49C123.571 24.7377 123.573 25.1321 123.35 25.4067L121.093 27.8142C120.871 28.0891 120.457 28.1183 120.194 27.8706C119.972 27.6806 119.925 27.3693 120.061 27.1202C120.092 27.0647 120.135 27.0521 120.165 26.9967Z" fill="white"/>
<defs>
<filter id="filter0_d" x="0" y="0" width="145" height="42" filterUnits="userSpaceOnUse" color-interpolation-filters="sRGB">
<feFlood flood-opacity="0" result="BackgroundImageFix"/>
<feColorMatrix in="SourceAlpha" type="matrix" values="0 0 0 0 0 0 0 0 0 0 0 0 0 0 0 0 0 0 127 0"/>
<feOffset dy="2"/>
<feColorMatrix type="matrix" values="0 0 0 0 0.482353 0 0 0 0 0.141176 0 0 0 0 0.141176 0 0 0 1 0"/>
<feBlend mode="normal" in2="BackgroundImageFix" result="effect1_dropShadow"/>
<feBlend mode="normal" in="SourceGraphic" in2="effect1_dropShadow" result="shape"/>
</filter>
<linearGradient id="paint0_linear" x1="0" y1="0" x2="0" y2="40" gradientUnits="userSpaceOnUse">
<stop stop-color="#16181D" stop-opacity="0"/>
<stop offset="1" stop-color="#16181D" stop-opacity="0.07"/>
</linearGradient>
</defs>
</svg>
